<?xml version="1.0" encoding="UTF-8" standalone="no"?><!DOCTYPE svg PUBLIC "-//W3C//DTD SVG 1.1//EN" "http://www.w3.org/Graphics/SVG/1.1/DTD/svg11.dtd"><svg width="100%" height="100%" viewBox="0 0 625 625" version="1.1" xmlns="http://www.w3.org/2000/svg" xmlns:xlink="http://www.w3.org/1999/xlink" xml:space="preserve" xmlns:serif="http://www.serif.com/" style="fill-rule:evenodd;clip-rule:evenodd;stroke-linejoin:round;stroke-miterlimit:2;"><g id="_1" serif:id="1"><rect x="0" y="0" width="625" height="625" style="fill:#c2c3c5;"/><rect x="62.108" y="262.037" width="101.717" height="101.713" style="fill:#fff;"/><rect x="71.263" y="271.837" width="83.408" height="83.396" style="fill:#c2c3c5;"/><path d="M203.565,286.361c-0,-0.484 0.333,-0.804 0.812,-0.804l5.204,-0c0.654,-0 1.067,0.158 1.388,0.804l25.033,41.466l0.317,0l-0,-41.466c-0,-0.484 0.333,-0.804 0.816,-0.804l5.125,-0c0.484,-0 0.813,0.32 0.813,0.804l-0,53.654c-0,0.492 -0.329,0.812 -0.813,0.812l-5.212,0c-0.55,0 -1.046,-0.154 -1.375,-0.812l-25.108,-41.292l-0.255,0l0,41.292c0,0.492 -0.329,0.812 -0.812,0.812l-5.121,0c-0.479,0 -0.812,-0.32 -0.812,-0.812l-0,-53.654Z" style="fill:#fff;fill-rule:nonzero;"/><path d="M286.857,326.77c0.658,-2.033 1.221,-5.613 1.221,-13.571c-0,-7.967 -0.563,-11.55 -1.221,-13.575c-1.708,-5.287 -5.612,-8.225 -11.783,-8.225c-6.092,0 -10.004,2.938 -11.713,8.225c-0.65,2.025 -1.221,5.608 -1.221,13.575c0,7.958 0.571,11.538 1.221,13.571c1.709,5.292 5.621,8.208 11.713,8.208c6.171,0 10.075,-2.916 11.783,-8.208m-30.567,2.046c-1.05,-3.188 -1.466,-6.521 -1.466,-15.617c-0,-9.108 0.416,-12.442 1.466,-15.6c2.838,-8.554 9.513,-12.942 18.784,-12.942c9.35,0 16.016,4.388 18.854,12.942c1.054,3.158 1.475,6.492 1.475,15.6c-0,9.096 -0.421,12.429 -1.475,15.617c-2.838,8.525 -9.504,12.904 -18.854,12.904c-9.271,-0 -15.946,-4.379 -18.784,-12.904" style="fill:#fff;fill-rule:nonzero;"/><path d="M326.672,286.361c0,-0.484 0.321,-0.804 0.813,-0.804l5.612,-0c0.484,-0 0.813,0.32 0.813,0.804l-0,53.654c-0,0.492 -0.329,0.812 -0.813,0.812l-5.612,0c-0.492,0 -0.813,-0.32 -0.813,-0.812l0,-53.654Z" style="fill:#fff;fill-rule:nonzero;"/><path d="M347.591,286.361c0,-0.484 0.329,-0.804 0.804,-0.804l5.292,-0c0.646,-0 1.054,0.241 1.292,0.804l16.5,37.241l0.254,0l16.179,-37.241c0.229,-0.563 0.65,-0.804 1.296,-0.804l5.283,-0c0.496,-0 0.813,0.32 0.813,0.804l-0,53.654c-0,0.492 -0.317,0.812 -0.813,0.812l-5.129,0c-0.479,0 -0.8,-0.32 -0.8,-0.812l0,-38.446l-0.254,0l-13.733,30.404c-0.334,0.725 -0.73,0.979 -1.455,0.979l-3.266,0c-0.804,0 -1.209,-0.254 -1.538,-0.979l-13.729,-30.404l-0.254,0l-0,38.446c-0,0.492 -0.329,0.812 -0.813,0.812l-5.125,0c-0.475,0 -0.804,-0.32 -0.804,-0.812l0,-53.654Z" style="fill:#fff;fill-rule:nonzero;"/><path d="M435.685,321.326l-8.7,-25.121l-0.166,-0l-8.784,25.121l17.65,-0Zm-12.362,-34.967c0.162,-0.483 0.408,-0.804 0.971,-0.804l5.287,-0c0.563,-0 0.892,0.321 1.067,0.804l18.929,53.654c0.175,0.496 -0.079,0.817 -0.562,0.817l-5.696,-0c-0.563,-0 -0.892,-0.233 -1.059,-0.817l-4.225,-12.029l-22.358,0l-4.221,12.029c-0.241,0.584 -0.575,0.817 -1.054,0.817l-5.7,-0c-0.487,-0 -0.737,-0.321 -0.558,-0.817l19.179,-53.654Z" style="fill:#fff;fill-rule:nonzero;"/><path d="M456.453,313.2c0,-9.112 0.488,-12.442 1.467,-15.6c2.75,-8.554 9.588,-12.946 18.938,-12.946c9.683,0 15.608,4.884 18.37,10.988c0.242,0.475 0.167,0.891 -0.241,1.125l-4.875,2.362c-0.496,0.246 -0.892,0.079 -1.142,-0.408c-2.675,-4.958 -6.258,-7.321 -12.112,-7.321c-6.255,0 -10.242,2.938 -11.946,8.225c-0.734,2.025 -1.142,5.117 -1.142,13.575c0,8.446 0.408,11.538 1.142,13.571c1.704,5.287 5.691,8.208 11.946,8.208c5.6,0 10.162,-2.754 11.87,-7.966c0.563,-1.859 1.055,-4.542 1.055,-8.7c-0,-0.321 -0.167,-0.484 -0.492,-0.484l-10.717,0c-0.504,0 -0.825,-0.333 -0.825,-0.812l0,-4.713c0,-0.491 0.321,-0.812 0.825,-0.812l17.634,-0c0.483,-0 0.812,0.321 0.812,0.812l0,4.15c0,4.95 -0.571,9.504 -1.387,12.188c-2.68,8.371 -9.588,13.079 -18.775,13.079c-9.35,-0 -16.188,-4.379 -18.938,-12.904c-0.979,-3.192 -1.467,-6.521 -1.467,-15.617" style="fill:#fff;fill-rule:nonzero;"/><path d="M508.773,286.361c-0,-0.484 0.329,-0.804 0.8,-0.804l33.254,-0c0.5,-0 0.821,0.32 0.821,0.804l-0,5.133c-0,0.488 -0.321,0.817 -0.821,0.817l-26.333,-0c-0.321,-0 -0.488,0.154 -0.488,0.475l0,16.262c0,0.329 0.167,0.492 0.488,0.492l22.358,-0c0.488,-0 0.813,0.317 0.813,0.812l-0,5.121c-0,0.488 -0.325,0.804 -0.813,0.804l-22.358,0c-0.321,0 -0.488,0.18 -0.488,0.505l0,16.82c0,0.33 0.167,0.484 0.488,0.484l26.333,-0c0.5,-0 0.821,0.316 0.821,0.812l-0,5.117c-0,0.492 -0.321,0.812 -0.821,0.812l-33.254,0c-0.471,0 -0.8,-0.32 -0.8,-0.812l-0,-53.654Z" style="fill:#fff;fill-rule:nonzero;"/><path d="M140.495,309.44c-1.363,-1.375 -3.613,-1.375 -4.988,-0l-23.412,23.433c-1.387,1.388 -3.617,1.388 -5.004,0l-12.008,-12.025c-1.38,-1.375 -3.621,-1.375 -4.996,0l-15.713,15.717c-0.654,0.667 -1.033,1.571 -1.033,2.496l-0,9.675c-0,1.937 1.571,3.525 3.525,3.525l70.596,-0c1.962,-0 3.537,-1.588 3.537,-3.525l0,-27.334c0,-0.929 -0.367,-1.829 -1.037,-2.491l-9.467,-9.471Z" style="fill:#fff;fill-rule:nonzero;"/><path d="M89.477,295.333c0,-5.642 4.355,-10.271 9.884,-10.733c-1.938,-1.825 -4.534,-2.946 -7.392,-2.946c-5.958,-0 -10.792,4.825 -10.792,10.783c0,5.954 4.834,10.783 10.792,10.783c0.3,0 0.592,-0.02 0.896,-0.05c-2.083,-1.966 -3.388,-4.737 -3.388,-7.837" style="fill:#fff;fill-rule:nonzero;"/></g></svg>